Coordinates
version=1
nRows=16
nColumns=40
inDegrees=yes

Units are S.I. units (second, meters, Newtons, ...)
Angles are in degrees.

endheader
time	pelvis_tilt	pelvis_list	pelvis_rotation	pelvis_tx	pelvis_ty	pelvis_tz	hip_flexion_r	hip_adduction_r	hip_rotation_r	knee_angle_r	knee_angle_r_beta	ankle_angle_r	subtalar_angle_r	mtp_angle_r	hip_flexion_l	hip_adduction_l	hip_rotation_l	knee_angle_l	knee_angle_l_beta	ankle_angle_l	subtalar_angle_l	mtp_angle_l	lumbar_extension	lumbar_bending	lumbar_rotation	arm_flex_r	arm_add_r	arm_rot_r	elbow_flex_r	pro_sup_r	wrist_flex_r	wrist_dev_r	arm_flex_l	arm_add_l	arm_rot_l	elbow_flex_l	pro_sup_l	wrist_flex_l	wrist_dev_l
     27.60000000	     -6.04483032	     14.34137341	     89.40380652	      0.65742196	      1.01327734	     -0.98408851	    -18.27399186	      0.99462143	      6.88204176	      0.31237512	      0.00545197	     13.93679702	      0.00000000	      0.00000000	    -27.83011118	      0.41702406	    -19.54487349	      5.99675445	      0.10466311	      7.11674859	      0.00000000	      0.00000000	    -34.95255449	     -2.83461366	      4.69306116	      5.18522622	    -10.94275695	      2.21499308	     63.93461258	     88.84378589	      0.00000000	      0.00000000	      4.15291531	     -7.26881686	    -17.18814216	     33.50567295	     88.43669793	      0.00000000	      0.00000000
     27.61000000	     -6.17555825	     14.64684406	     89.34700858	      0.65720227	      1.01386646	     -0.98251889	    -18.51275486	      0.81397767	      6.52781962	      0.29701810	      0.00518394	     13.65295032	      0.00000000	      0.00000000	    -26.83760239	      0.72427497	    -18.49189220	      5.96602300	      0.10412674	      6.96836080	      0.00000000	      0.00000000	    -35.47497529	     -3.05745039	      4.88331901	      5.36299286	    -11.05918939	      2.40470780	     64.10316844	     88.90803108	      0.00000000	      0.00000000	      4.03135768	     -7.11559789	    -17.15973273	     33.58502302	     88.52712338	      0.00000000	      0.00000000
     27.62000000	     -6.09696048	     14.86708349	     89.09941289	      0.65706908	      1.01428458	     -0.98140073	    -18.66939476	      0.80944220	      6.43289987	      0.28354486	      0.00494879	     13.61816525	      0.00000000	      0.00000000	    -25.87643115	      0.85057551	    -18.39367754	      5.88241928	      0.10266758	      6.95253882	      0.00000000	      0.00000000	    -35.81243721	     -3.14234085	      5.28220844	      5.53500463	    -11.10734490	      2.43933109	     64.06701801	     88.74384574	      0.00000000	      0.00000000	      3.85424223	     -6.86128155	    -17.12201001	     33.57236307	     88.35003769	      0.00000000	      0.00000000
     27.63000000	     -6.21367730	     15.03030222	     88.92571971	      0.65689854	      1.01479620	     -0.97991004	    -18.72945389	      0.60905784	      6.16492529	      0.27990370	      0.00488524	     13.38367643	      0.00000000	      0.00000000	    -24.71547326	      1.11466896	    -17.78133383	      6.16654894	      0.10762658	      6.87819012	      0.00000000	      0.00000000	    -36.14999180	     -3.42613829	      5.63385450	      5.68695576	    -11.27327484	      2.58960294	     64.01104252	     88.88622130	      0.00000000	      0.00000000	      3.78503152	     -6.59165709	    -17.17883486	     33.62367252	     88.43510841	      0.00000000	      0.00000000
     27.64000000	     -6.38794733	     15.06460549	     88.75777725	      0.65690138	      1.01515774	     -0.97839330	    -18.64692068	      0.35614255	      5.96508047	      0.27471724	      0.00479472	     13.17125610	      0.00000000	      0.00000000	    -23.41720511	      1.38905049	    -17.40790203	      6.51200004	      0.11365584	      6.92832217	      0.00000000	      0.00000000	    -36.36187785	     -3.75843688	      5.80963887	      5.91290486	    -11.22950032	      2.72012270	     63.94460593	     88.92741205	      0.00000000	      0.00000000	      3.64644458	     -6.39376750	    -17.28772594	     33.64461406	     88.52281122	      0.00000000	      0.00000000
     27.65000000	     -6.38997241	     14.93722716	     88.54816068	      0.65692577	      1.01522529	     -0.97686981	    -18.37391640	      0.29533983	      5.97482006	      0.27327273	      0.00476951	     13.06149227	      0.00000000	      0.00000000	    -21.81922408	      1.39958653	    -17.38219800	      7.24112568	      0.12638148	      7.40626126	      0.00000000	      0.00000000	    -36.35388186	     -3.93115932	      6.05253908	      6.22810391	    -11.16011342	      2.83114766	     63.59553119	     88.90229264	      0.00000000	      0.00000000	      3.48104679	     -6.17013815	    -17.38516143	     33.66166688	     88.55764063	      0.00000000	      0.00000000
     27.66000000	     -6.39599155	     14.96455516	     88.24514316	      0.65692608	      1.01547107	     -0.97546524	    -18.26966390	      0.18437288	      6.09582169	      0.27120467	      0.00473341	     12.93276299	      0.00000000	      0.00000000	    -20.57132403	      1.49809187	    -17.29375232	      7.69181420	      0.13424748	      7.66303624	      0.00000000	      0.00000000	    -36.50400085	     -4.15052278	      6.34837003	      6.48813276	    -11.13554117	      2.94680836	     63.44274651	     88.90470064	      0.00000000	      0.00000000	      3.34523032	     -5.94005620	    -17.49163401	     33.69340469	     88.54162237	      0.00000000	      0.00000000
     27.67000000	     -6.44847988	     15.19380872	     87.91939726	      0.65687494	      1.01608737	     -0.97424762	    -18.39714057	     -0.00708127	      6.13765421	      0.27022333	      0.00471629	     12.80907329	      0.00000000	      0.00000000	    -19.69076016	      1.69866765	    -17.03758842	      7.89165920	      0.13773544	      7.66588395	      0.00000000	      0.00000000	    -36.86119975	     -4.43360469	      6.67213537	      6.66250231	    -11.15810671	      3.03578349	     63.40812602	     88.87274676	      0.00000000	      0.00000000	      3.26909811	     -5.70313716	    -17.53388283	     33.69172592	     88.45406963	      0.00000000	      0.00000000
     27.68000000	     -6.38442107	     15.09790757	     87.62630061	      0.65672116	      1.01621243	     -0.97285757	    -18.16262861	     -0.05777905	      6.51149659	      0.27099559	      0.00472977	     12.70199156	      0.00000000	      0.00000000	    -18.32828703	      1.66251395	    -16.96063203	      8.44629314	      0.14741562	      8.09732294	      0.00000000	      0.00000000	    -36.88710102	     -4.56413635	      6.91488341	      6.91956693	    -11.20530973	      3.31265050	     63.32415787	     88.94638339	      0.00000000	      0.00000000	      3.17089169	     -5.47529205	    -17.70389741	     33.60499647	     88.46211304	      0.00000000	      0.00000000
     27.69000000	     -6.37597906	     15.08631802	     87.40959817	      0.65641800	      1.01642307	     -0.97156568	    -18.02726568	     -0.14213916	      6.63639051	      0.27042974	      0.00471989	     12.56961529	      0.00000000	      0.00000000	    -17.15455056	      1.67396097	    -16.88244533	      8.97908691	      0.15671463	      8.33153235	      0.00000000	      0.00000000	    -36.98887489	     -4.68639664	      6.99779512	      7.24991587	    -11.11727210	      3.45166898	     63.09959606	     88.92056512	      0.00000000	      0.00000000	      3.01171530	     -5.27912935	    -17.84423750	     33.61467670	     88.54364064	      0.00000000	      0.00000000
     27.70000000	     -6.48096170	     15.17455365	     87.23116680	      0.65616936	      1.01682278	     -0.97042849	    -18.02144842	     -0.34057291	      6.62240379	      0.26917566	      0.00469800	     12.52639052	      0.00000000	      0.00000000	    -16.17567809	      1.80686107	    -16.78645030	      9.46637052	      0.16521933	      8.48725366	      0.00000000	      0.00000000	    -37.17710280	     -4.90426815	      7.00288037	      7.53372406	    -10.99425683	      3.56673837	     62.94366427	     88.90825846	      0.00000000	      0.00000000	      2.87488365	     -5.13435478	    -17.88506425	     33.60139504	     88.55136873	      0.00000000	      0.00000000
     27.71000000	     -6.51858434	     15.18567081	     86.98350046	      0.65598157	      1.01710808	     -0.96935525	    -17.93234517	     -0.48444461	      6.83335072	      0.27023962	      0.00471657	     12.48170345	      0.00000000	      0.00000000	    -15.19726972	      1.88008442	    -16.74538125	      9.91539835	      0.17305635	      8.52928847	      0.00000000	      0.00000000	    -37.25216199	     -5.08518787	      7.14567348	      7.71067204	    -10.91986548	      3.66320210	     62.82915277	     88.93262139	      0.00000000	      0.00000000	      2.82195714	     -4.98121088	    -17.80047238	     33.49047049	     88.52858617	      0.00000000	      0.00000000
     27.72000000	     -6.56922767	     15.30694951	     86.84871644	      0.65560845	      1.01748593	     -0.96852400	    -17.98651993	     -0.61395121	      6.74756370	      0.26397855	      0.00460729	     12.38773599	      0.00000000	      0.00000000	    -14.48115787	      1.98849404	    -16.45096307	     10.19633827	      0.17795967	      8.23929648	      0.00000000	      0.00000000	    -37.41826983	     -5.20407321	      7.09068955	      7.96368248	    -10.77861025	      3.78905738	     62.60127076	     88.89760944	      0.00000000	      0.00000000	      2.73146422	     -4.88303427	    -17.71755407	     33.35173840	     88.49602271	      0.00000000	      0.00000000
     27.73000000	     -6.56410390	     15.22773655	     86.66865230	      0.65513378	      1.01751022	     -0.96769318	    -17.81154708	     -0.70017830	      6.93456131	      0.26767117	      0.00467174	     12.29945637	      0.00000000	      0.00000000	    -13.46568631	      1.97180237	    -16.33303751	     10.75756540	      0.18775494	      8.36185372	      0.00000000	      0.00000000	    -37.36038206	     -5.27809009	      7.11858158	      8.12094514	    -10.64311737	      3.83278421	     62.49373511	     88.91703452	      0.00000000	      0.00000000	      2.65956667	     -4.78966470	    -17.53221752	     33.19535857	     88.54666699	      0.00000000	      0.00000000
     27.74000000	     -6.34776374	     15.61714129	     86.34675793	      0.65463460	      1.01806557	     -0.96738261	    -18.20502707	     -0.61843458	      7.09527890	      0.26559919	      0.00463558	     12.61127731	      0.00000000	      0.00000000	    -13.34782103	      1.87272290	    -16.31628586	     10.76874364	      0.18795003	      8.46703924	      0.00000000	      0.00000000	    -37.67604652	     -5.18453905	      7.33139918	      8.24015337	    -10.66212461	      3.91780587	     62.44752030	     88.89858368	      0.00000000	      0.00000000	      2.61858905	     -4.69927214	    -17.08399278	     32.90207962	     88.18530844	      0.00000000	      0.00000000
     27.75000000	     -6.48759731	     15.42442478	     86.25628318	      0.65405958	      1.01795253	     -0.96681024	    -17.90926295	     -0.82903821	      6.95815248	      0.26559555	      0.00463552	     12.16818020	      0.00000000	      0.00000000	    -12.27405233	      1.97111174	    -16.16533544	     11.35065729	      0.19810634	      7.98534962	      0.00000000	      0.00000000	    -37.45437696	     -5.35010748	      7.14387786	      8.36895739	    -10.47105908	      4.02620735	     62.28551305	     88.91225591	      0.00000000	      0.00000000	      2.45926798	     -4.69587500	    -16.99895219	     32.93248907	     88.57569436	      0.00000000	      0.00000000
